<svg width="1080" height="920" viewBox="0 0 1080 920" fill="none" xmlns="http://www.w3.org/2000/svg">
<path d="M697.53 377.887C698.115 378.999 701.276 385.263 703.559 390.589C703.852 391.292 705.666 395.447 707.305 400.013C714.153 418.919 717.9 439.289 717.9 460.42C717.9 558.874 637.708 639.065 539.723 639.065C521.343 639.065 503.666 636.314 486.984 631.163C516.719 621.914 544.347 603.418 563.546 578.775C569.517 571.048 574.082 562.268 578.999 553.898C615.114 538.562 640.752 502.564 640.752 460.42C640.752 418.276 615.524 383.272 579.818 367.761C579.76 364.834 579.526 362.083 579.175 359.566C578.941 357.576 578.589 355.469 578.18 353.186C573.907 330.241 565.77 308.29 558.512 289.443C557.517 286.75 555.761 283.706 555.468 282.418C562.375 283.062 570.043 284.174 578.297 286.048C583.74 287.277 596.149 290.321 610.022 296.35C615.817 298.866 639.699 309.637 663.756 333.109C663.756 333.109 685.004 353.83 697.53 377.887Z" fill="#091F2E"/>
<path d="M554.301 561.039C552.662 565.898 547.569 570.873 544.116 574.619C528.721 591.419 508.761 604.706 487.338 612.491C477.738 616.003 460.412 610.559 450.169 611.144C451.105 610.052 452.374 608.842 453.974 607.515L454.208 607.281L513.737 550.737C525.794 549.45 539.433 561.566 554.301 561.039V561.039Z" fill="#38C9A6"/>
<path d="M501.268 534.583C501.209 535.168 501.092 535.812 500.916 536.456C500.624 537.217 500.273 537.978 499.804 538.739L498.985 539.675L427.691 607.516L425.115 607.34C424.296 607.34 423.476 607.164 422.598 607.047C414.93 605.818 401.292 605.116 383.79 605.057C377.176 605.057 371.498 605.409 367.342 605.701C365.06 605.877 363.187 605.994 361.84 605.994L343.519 606.286L481.366 505.198C483.239 504.555 485.229 504.496 487.044 505.082C488.624 505.491 490.263 506.662 491.376 508.301C496.292 514.33 502.321 526.563 501.268 534.583V534.583Z" fill="#38C9A6"/>
<path d="M347.618 579.887C348.086 562.152 347.618 546.406 347.618 528.612C347.618 523.051 351.305 521.529 354.349 519.949C355.344 519.422 441.447 473.824 442.969 473.063C445.31 471.893 447.71 470.956 450.286 470.956C456.49 470.956 460.119 476.692 463.514 482.019C465.329 484.887 467.495 488.224 468.08 491.267L347.618 579.887V579.887Z" fill="#38C9A6"/>
<path d="M602.941 170.327C601.302 167.517 597.731 166.581 594.922 168.22L509.287 218.383L495.063 226.695L490.907 242.733L485.58 263.337C481.834 264.449 478.205 266.088 474.869 268.254C476.391 254.44 477.912 240.567 479.376 226.753C479.376 226.753 563.665 159.791 566.006 157.449C568.347 155.108 568.933 151.713 566.884 149.196C564.894 146.679 561.206 146.269 558.689 148.259L481.19 210.247L468.254 220.607C466.147 240.216 464.04 259.825 461.874 279.434C461.64 279.668 461.406 279.96 461.172 280.253C450.285 293.657 449.231 308.759 447.416 325.265C447.416 323.919 422.305 320.056 420.432 319.705C407.613 317.48 395.321 313.149 383.322 320.29C378.171 323.334 373.078 326.378 367.927 329.421C352.123 338.787 336.319 348.211 320.457 357.635C300.204 369.693 280.068 381.692 259.816 393.633C214.335 420.675 168.913 447.601 123.491 474.527C109.208 483.014 93.1701 490.565 80 500.574C84.4486 508.301 92.4091 515.208 101.189 520.476C104.233 522.349 107.394 524.046 110.613 525.392C115.354 527.558 119.979 529.08 124.427 530.075C147.548 535.109 172.249 533.061 195.194 528.202C202.336 526.68 209.477 524.866 216.501 522.7C227.739 519.247 234.412 514.798 241.787 505.491C260.108 482.312 278.429 459.132 296.751 435.953C312.145 416.403 327.539 396.911 342.934 377.361C350.25 424.305 343.343 501.92 343.343 501.92C343.343 501.92 423.125 468.673 438.929 443.855C447.241 430.86 455.611 417.983 464.333 405.281C468.664 398.96 473.113 392.638 477.62 386.433C481.483 381.048 486.868 375.956 488.097 369.4C487.512 373.263 509.404 378.297 511.979 378.999C522.632 382.043 533.754 385.555 544.934 385.555C559.274 385.555 563.899 378.941 561.674 361.732C559.684 346.221 555.47 331.119 550.845 316.251C547.451 305.306 542.709 294.594 536.036 285.17C529.071 275.336 518.945 266.849 507.297 263.395C504.253 262.459 501.15 261.932 497.931 261.756L505.072 234.363L600.716 178.287C603.526 176.648 604.462 173.078 602.823 170.268L602.941 170.327Z" fill="#38C9A6"/>
<mask id="path-6-outside-1_866_22" maskUnits="userSpaceOnUse" x="398" y="731.41" width="284" height="46" fill="black">
<rect fill="white" x="398" y="731.41" width="284" height="46"/>
<path d="M411.02 767.029C408.648 767.029 406.549 766.531 404.722 765.534C402.927 764.538 401.516 763.139 400.491 761.339C399.497 759.507 399 757.354 399 754.878V754.252C399 751.809 399.497 749.671 400.491 747.839C401.516 746.007 402.927 744.593 404.722 743.596C406.549 742.6 408.648 742.101 411.02 742.101C413.393 742.101 415.476 742.6 417.271 743.596C419.098 744.593 420.509 746.007 421.502 747.839C422.528 749.671 423.041 751.809 423.041 754.252V754.878C423.041 757.354 422.528 759.507 421.502 761.339C420.509 763.139 419.098 764.538 417.271 765.534C415.476 766.531 413.393 767.029 411.02 767.029ZM411.02 763.605C413.521 763.605 415.508 762.818 416.983 761.243C418.489 759.636 419.243 757.482 419.243 754.782V754.348C419.243 751.648 418.489 749.511 416.983 747.935C415.508 746.328 413.521 745.525 411.02 745.525C408.552 745.525 406.565 746.328 405.058 747.935C403.552 749.511 402.798 751.648 402.798 754.348V754.782C402.798 757.482 403.552 759.636 405.058 761.243C406.565 762.818 408.552 763.605 411.02 763.605Z"/>
<path d="M432.677 766.354L427.965 742.776H431.811L435.706 763.798H436.379L441.524 742.776H447.822L452.967 763.798H453.64L457.535 742.776H461.381L456.669 766.354H450.178L444.986 745.332H444.36L439.168 766.354H432.677Z"/>
<path d="M474.747 767.029C473.112 767.029 471.621 766.739 470.275 766.161C468.929 765.582 467.871 764.747 467.102 763.654C466.332 762.561 465.948 761.227 465.948 759.652C465.948 758.045 466.332 756.727 467.102 755.698C467.871 754.637 468.929 753.85 470.275 753.336C471.621 752.789 473.128 752.516 474.795 752.516H482.728V750.78C482.728 749.109 482.232 747.791 481.238 746.827C480.276 745.862 478.834 745.38 476.91 745.38C475.019 745.38 473.545 745.846 472.487 746.778C471.429 747.678 470.708 748.9 470.323 750.443L466.765 749.286C467.15 747.968 467.759 746.778 468.592 745.718C469.426 744.625 470.532 743.757 471.91 743.114C473.32 742.439 475.003 742.101 476.959 742.101C479.972 742.101 482.312 742.889 483.978 744.464C485.645 746.007 486.479 748.193 486.479 751.021V761.677C486.479 762.641 486.928 763.123 487.825 763.123H489.989V766.354H486.671C485.613 766.354 484.764 766.064 484.123 765.486C483.482 764.875 483.161 764.072 483.161 763.075V762.834H482.584C482.232 763.445 481.751 764.088 481.142 764.763C480.565 765.405 479.763 765.936 478.738 766.354C477.712 766.804 476.382 767.029 474.747 767.029ZM475.179 763.75C477.423 763.75 479.234 763.091 480.613 761.773C482.023 760.423 482.728 758.543 482.728 756.132V755.602H474.939C473.433 755.602 472.182 755.939 471.189 756.614C470.227 757.257 469.746 758.237 469.746 759.555C469.746 760.873 470.243 761.902 471.237 762.641C472.263 763.38 473.577 763.75 475.179 763.75Z"/>
<path d="M504.475 767.029C501.558 767.029 499.09 766.354 497.071 765.004C495.083 763.654 493.881 761.516 493.465 758.591L497.071 757.771C497.327 759.314 497.808 760.536 498.513 761.436C499.218 762.304 500.084 762.93 501.11 763.316C502.167 763.67 503.289 763.847 504.475 763.847C506.238 763.847 507.633 763.493 508.658 762.786C509.684 762.079 510.197 761.13 510.197 759.941C510.197 758.72 509.7 757.868 508.707 757.386C507.745 756.871 506.415 756.454 504.716 756.132L502.744 755.795C501.238 755.537 499.859 755.136 498.609 754.589C497.359 754.043 496.365 753.303 495.628 752.371C494.891 751.439 494.522 750.266 494.522 748.852C494.522 746.73 495.34 745.075 496.975 743.885C498.609 742.696 500.773 742.101 503.466 742.101C506.126 742.101 508.274 742.712 509.909 743.934C511.575 745.123 512.649 746.81 513.13 748.996L509.572 749.912C509.283 748.209 508.594 747.019 507.504 746.344C506.415 745.637 505.068 745.284 503.466 745.284C501.863 745.284 500.597 745.589 499.667 746.2C498.738 746.778 498.273 747.646 498.273 748.803C498.273 749.928 498.705 750.764 499.571 751.311C500.468 751.825 501.654 752.211 503.129 752.468L505.1 752.805C506.767 753.095 508.258 753.496 509.572 754.011C510.918 754.493 511.976 755.2 512.745 756.132C513.547 757.064 513.947 758.286 513.947 759.796C513.947 762.111 513.082 763.895 511.351 765.148C509.652 766.402 507.36 767.029 504.475 767.029Z"/>
<path d="M520.359 775.997V742.776H524.061V746.682H524.734C525.343 745.493 526.321 744.432 527.667 743.5C529.046 742.568 530.953 742.101 533.389 742.101C535.409 742.101 537.252 742.6 538.919 743.596C540.617 744.56 541.964 745.943 542.957 747.743C543.983 749.543 544.496 751.712 544.496 754.252V754.878C544.496 757.386 543.999 759.555 543.005 761.388C542.012 763.22 540.665 764.618 538.967 765.582C537.3 766.547 535.441 767.029 533.389 767.029C531.754 767.029 530.36 766.804 529.206 766.354C528.084 765.936 527.17 765.389 526.465 764.714C525.76 764.039 525.215 763.348 524.831 762.641H524.157V775.997H520.359ZM532.379 763.654C534.816 763.654 536.787 762.882 538.293 761.339C539.832 759.764 540.601 757.579 540.601 754.782V754.348C540.601 751.552 539.832 749.382 538.293 747.839C536.787 746.264 534.816 745.477 532.379 745.477C529.975 745.477 527.988 746.264 526.417 747.839C524.879 749.382 524.109 751.552 524.109 754.348V754.782C524.109 757.579 524.879 759.764 526.417 761.339C527.988 762.882 529.975 763.654 532.379 763.654Z"/>
<path d="M572.891 775.997C568.596 775.997 564.797 775.161 561.496 773.49C558.226 771.818 555.662 769.407 553.803 766.257C551.943 763.075 551.014 759.218 551.014 754.686V753.673C551.014 749.173 551.895 745.348 553.658 742.198C555.421 739.016 557.873 736.589 561.015 734.917C564.188 733.246 567.858 732.41 572.026 732.41H573.035C577.01 732.41 580.504 733.23 583.517 734.869C586.53 736.476 588.886 738.775 590.585 741.764C592.284 744.753 593.134 748.337 593.134 752.516V754.155C593.134 758.237 592.38 761.291 590.874 763.316C589.399 765.341 587.3 766.354 584.575 766.354H582.988C581.674 766.354 580.68 766.064 580.007 765.486C579.334 764.875 578.997 764.072 578.997 763.075V762.593H578.324C578.068 763.268 577.651 763.943 577.074 764.618C576.529 765.261 575.776 765.807 574.814 766.257C573.885 766.707 572.683 766.932 571.208 766.932C569.317 766.932 567.618 766.418 566.111 765.389C564.605 764.361 563.419 762.947 562.553 761.146C561.72 759.346 561.303 757.337 561.303 755.12V754.252C561.303 751.969 561.72 749.944 562.553 748.177C563.387 746.409 564.541 745.01 566.015 743.982C567.49 742.953 569.173 742.439 571.064 742.439C572.506 742.439 573.692 742.648 574.622 743.066C575.552 743.451 576.289 743.95 576.834 744.56C577.379 745.171 577.811 745.782 578.132 746.393H578.805V743.018H582.507V761.725C582.507 762.207 582.588 762.545 582.748 762.738C582.94 762.93 583.261 763.027 583.71 763.027H584.286C586.082 763.027 587.364 762.336 588.133 760.954C588.934 759.539 589.335 757.209 589.335 753.962V752.612C589.335 749.044 588.678 746.023 587.364 743.548C586.049 741.041 584.174 739.128 581.738 737.81C579.302 736.492 576.385 735.833 572.987 735.833H572.17C568.676 735.833 565.631 736.508 563.034 737.858C560.438 739.209 558.418 741.217 556.976 743.885C555.533 746.553 554.812 749.864 554.812 753.818V754.589C554.812 758.511 555.566 761.821 557.072 764.522C558.611 767.189 560.758 769.198 563.515 770.548C566.272 771.898 569.461 772.573 573.083 772.573H582.507V775.997H572.891ZM571.929 763.509C573.949 763.509 575.6 762.754 576.882 761.243C578.164 759.732 578.805 757.627 578.805 754.927V754.445C578.805 751.744 578.164 749.639 576.882 748.128C575.6 746.585 573.949 745.814 571.929 745.814C569.91 745.814 568.259 746.585 566.977 748.128C565.695 749.671 565.054 751.761 565.054 754.396V754.975C565.054 757.579 565.695 759.652 566.977 761.195C568.259 762.738 569.91 763.509 571.929 763.509Z"/>
<path d="M600.652 766.354V742.776H604.451V766.354H600.652ZM602.575 739.112C601.742 739.112 601.037 738.839 600.46 738.292C599.915 737.746 599.642 737.055 599.642 736.219C599.642 735.351 599.915 734.644 600.46 734.098C601.037 733.551 601.742 733.278 602.575 733.278C603.409 733.278 604.098 733.551 604.643 734.098C605.188 734.644 605.46 735.351 605.46 736.219C605.46 737.055 605.188 737.746 604.643 738.292C604.098 738.839 603.409 739.112 602.575 739.112Z"/>
<path d="M612.438 766.354V742.776H616.236V766.354H612.438ZM614.361 739.112C613.528 739.112 612.822 738.839 612.245 738.292C611.7 737.746 611.428 737.055 611.428 736.219C611.428 735.351 611.7 734.644 612.245 734.098C612.822 733.551 613.528 733.278 614.361 733.278C615.194 733.278 615.884 733.551 616.429 734.098C616.973 734.644 617.246 735.351 617.246 736.219C617.246 737.055 616.973 737.746 616.429 738.292C615.884 738.839 615.194 739.112 614.361 739.112Z"/>
<path d="M624.223 766.354V742.776H628.022V766.354H624.223ZM626.147 739.112C625.313 739.112 624.608 738.839 624.031 738.292C623.486 737.746 623.214 737.055 623.214 736.219C623.214 735.351 623.486 734.644 624.031 734.098C624.608 733.551 625.313 733.278 626.147 733.278C626.98 733.278 627.669 733.551 628.214 734.098C628.759 734.644 629.032 735.351 629.032 736.219C629.032 737.055 628.759 737.746 628.214 738.292C627.669 738.839 626.98 739.112 626.147 739.112Z"/>
<path d="M644.664 766.354C643.318 766.354 642.276 765.984 641.539 765.245C640.833 764.505 640.481 763.493 640.481 762.207V746.103H633.413V742.776H640.481V734.387H644.279V742.776H651.972V746.103H644.279V761.629C644.279 762.593 644.744 763.075 645.674 763.075H650.915V766.354H644.664Z"/>
<path d="M667.233 767.029C665.213 767.029 663.354 766.547 661.655 765.582C659.956 764.618 658.61 763.22 657.616 761.388C656.623 759.555 656.126 757.386 656.126 754.878V754.252C656.126 751.744 656.623 749.591 657.616 747.791C658.61 745.959 659.94 744.56 661.607 743.596C663.306 742.6 665.181 742.101 667.233 742.101C668.868 742.101 670.246 742.326 671.368 742.776C672.522 743.194 673.451 743.741 674.157 744.416C674.862 745.059 675.407 745.75 675.791 746.489H676.465V732.603H680.263V766.354H676.561V762.448H675.888C675.246 763.638 674.253 764.698 672.906 765.63C671.56 766.563 669.669 767.029 667.233 767.029ZM668.242 763.654C670.679 763.654 672.65 762.882 674.157 761.339C675.695 759.764 676.465 757.579 676.465 754.782V754.348C676.465 751.552 675.695 749.382 674.157 747.839C672.65 746.264 670.679 745.477 668.242 745.477C665.838 745.477 663.851 746.264 662.28 747.839C660.742 749.382 659.972 751.552 659.972 754.348V754.782C659.972 757.579 660.742 759.764 662.28 761.339C663.851 762.882 665.838 763.654 668.242 763.654Z"/>
</mask>
<path d="M411.02 767.029C408.648 767.029 406.549 766.531 404.722 765.534C402.927 764.538 401.516 763.139 400.491 761.339C399.497 759.507 399 757.354 399 754.878V754.252C399 751.809 399.497 749.671 400.491 747.839C401.516 746.007 402.927 744.593 404.722 743.596C406.549 742.6 408.648 742.101 411.02 742.101C413.393 742.101 415.476 742.6 417.271 743.596C419.098 744.593 420.509 746.007 421.502 747.839C422.528 749.671 423.041 751.809 423.041 754.252V754.878C423.041 757.354 422.528 759.507 421.502 761.339C420.509 763.139 419.098 764.538 417.271 765.534C415.476 766.531 413.393 767.029 411.02 767.029ZM411.02 763.605C413.521 763.605 415.508 762.818 416.983 761.243C418.489 759.636 419.243 757.482 419.243 754.782V754.348C419.243 751.648 418.489 749.511 416.983 747.935C415.508 746.328 413.521 745.525 411.02 745.525C408.552 745.525 406.565 746.328 405.058 747.935C403.552 749.511 402.798 751.648 402.798 754.348V754.782C402.798 757.482 403.552 759.636 405.058 761.243C406.565 762.818 408.552 763.605 411.02 763.605Z" fill="#38C9A6"/>
<path d="M432.677 766.354L427.965 742.776H431.811L435.706 763.798H436.379L441.524 742.776H447.822L452.967 763.798H453.64L457.535 742.776H461.381L456.669 766.354H450.178L444.986 745.332H444.36L439.168 766.354H432.677Z" fill="#38C9A6"/>
<path d="M474.747 767.029C473.112 767.029 471.621 766.739 470.275 766.161C468.929 765.582 467.871 764.747 467.102 763.654C466.332 762.561 465.948 761.227 465.948 759.652C465.948 758.045 466.332 756.727 467.102 755.698C467.871 754.637 468.929 753.85 470.275 753.336C471.621 752.789 473.128 752.516 474.795 752.516H482.728V750.78C482.728 749.109 482.232 747.791 481.238 746.827C480.276 745.862 478.834 745.38 476.91 745.38C475.019 745.38 473.545 745.846 472.487 746.778C471.429 747.678 470.708 748.9 470.323 750.443L466.765 749.286C467.15 747.968 467.759 746.778 468.592 745.718C469.426 744.625 470.532 743.757 471.91 743.114C473.32 742.439 475.003 742.101 476.959 742.101C479.972 742.101 482.312 742.889 483.978 744.464C485.645 746.007 486.479 748.193 486.479 751.021V761.677C486.479 762.641 486.928 763.123 487.825 763.123H489.989V766.354H486.671C485.613 766.354 484.764 766.064 484.123 765.486C483.482 764.875 483.161 764.072 483.161 763.075V762.834H482.584C482.232 763.445 481.751 764.088 481.142 764.763C480.565 765.405 479.763 765.936 478.738 766.354C477.712 766.804 476.382 767.029 474.747 767.029ZM475.179 763.75C477.423 763.75 479.234 763.091 480.613 761.773C482.023 760.423 482.728 758.543 482.728 756.132V755.602H474.939C473.433 755.602 472.182 755.939 471.189 756.614C470.227 757.257 469.746 758.237 469.746 759.555C469.746 760.873 470.243 761.902 471.237 762.641C472.263 763.38 473.577 763.75 475.179 763.75Z" fill="#38C9A6"/>
<path d="M504.475 767.029C501.558 767.029 499.09 766.354 497.071 765.004C495.083 763.654 493.881 761.516 493.465 758.591L497.071 757.771C497.327 759.314 497.808 760.536 498.513 761.436C499.218 762.304 500.084 762.93 501.11 763.316C502.167 763.67 503.289 763.847 504.475 763.847C506.238 763.847 507.633 763.493 508.658 762.786C509.684 762.079 510.197 761.13 510.197 759.941C510.197 758.72 509.7 757.868 508.707 757.386C507.745 756.871 506.415 756.454 504.716 756.132L502.744 755.795C501.238 755.537 499.859 755.136 498.609 754.589C497.359 754.043 496.365 753.303 495.628 752.371C494.891 751.439 494.522 750.266 494.522 748.852C494.522 746.73 495.34 745.075 496.975 743.885C498.609 742.696 500.773 742.101 503.466 742.101C506.126 742.101 508.274 742.712 509.909 743.934C511.575 745.123 512.649 746.81 513.13 748.996L509.572 749.912C509.283 748.209 508.594 747.019 507.504 746.344C506.415 745.637 505.068 745.284 503.466 745.284C501.863 745.284 500.597 745.589 499.667 746.2C498.738 746.778 498.273 747.646 498.273 748.803C498.273 749.928 498.705 750.764 499.571 751.311C500.468 751.825 501.654 752.211 503.129 752.468L505.1 752.805C506.767 753.095 508.258 753.496 509.572 754.011C510.918 754.493 511.976 755.2 512.745 756.132C513.547 757.064 513.947 758.286 513.947 759.796C513.947 762.111 513.082 763.895 511.351 765.148C509.652 766.402 507.36 767.029 504.475 767.029Z" fill="#38C9A6"/>
<path d="M520.359 775.997V742.776H524.061V746.682H524.734C525.343 745.493 526.321 744.432 527.667 743.5C529.046 742.568 530.953 742.101 533.389 742.101C535.409 742.101 537.252 742.6 538.919 743.596C540.617 744.56 541.964 745.943 542.957 747.743C543.983 749.543 544.496 751.712 544.496 754.252V754.878C544.496 757.386 543.999 759.555 543.005 761.388C542.012 763.22 540.665 764.618 538.967 765.582C537.3 766.547 535.441 767.029 533.389 767.029C531.754 767.029 530.36 766.804 529.206 766.354C528.084 765.936 527.17 765.389 526.465 764.714C525.76 764.039 525.215 763.348 524.831 762.641H524.157V775.997H520.359ZM532.379 763.654C534.816 763.654 536.787 762.882 538.293 761.339C539.832 759.764 540.601 757.579 540.601 754.782V754.348C540.601 751.552 539.832 749.382 538.293 747.839C536.787 746.264 534.816 745.477 532.379 745.477C529.975 745.477 527.988 746.264 526.417 747.839C524.879 749.382 524.109 751.552 524.109 754.348V754.782C524.109 757.579 524.879 759.764 526.417 761.339C527.988 762.882 529.975 763.654 532.379 763.654Z" fill="#38C9A6"/>
<path d="M572.891 775.997C568.596 775.997 564.797 775.161 561.496 773.49C558.226 771.818 555.662 769.407 553.803 766.257C551.943 763.075 551.014 759.218 551.014 754.686V753.673C551.014 749.173 551.895 745.348 553.658 742.198C555.421 739.016 557.873 736.589 561.015 734.917C564.188 733.246 567.858 732.41 572.026 732.41H573.035C577.01 732.41 580.504 733.23 583.517 734.869C586.53 736.476 588.886 738.775 590.585 741.764C592.284 744.753 593.134 748.337 593.134 752.516V754.155C593.134 758.237 592.38 761.291 590.874 763.316C589.399 765.341 587.3 766.354 584.575 766.354H582.988C581.674 766.354 580.68 766.064 580.007 765.486C579.334 764.875 578.997 764.072 578.997 763.075V762.593H578.324C578.068 763.268 577.651 763.943 577.074 764.618C576.529 765.261 575.776 765.807 574.814 766.257C573.885 766.707 572.683 766.932 571.208 766.932C569.317 766.932 567.618 766.418 566.111 765.389C564.605 764.361 563.419 762.947 562.553 761.146C561.72 759.346 561.303 757.337 561.303 755.12V754.252C561.303 751.969 561.72 749.944 562.553 748.177C563.387 746.409 564.541 745.01 566.015 743.982C567.49 742.953 569.173 742.439 571.064 742.439C572.506 742.439 573.692 742.648 574.622 743.066C575.552 743.451 576.289 743.95 576.834 744.56C577.379 745.171 577.811 745.782 578.132 746.393H578.805V743.018H582.507V761.725C582.507 762.207 582.588 762.545 582.748 762.738C582.94 762.93 583.261 763.027 583.71 763.027H584.286C586.082 763.027 587.364 762.336 588.133 760.954C588.934 759.539 589.335 757.209 589.335 753.962V752.612C589.335 749.044 588.678 746.023 587.364 743.548C586.049 741.041 584.174 739.128 581.738 737.81C579.302 736.492 576.385 735.833 572.987 735.833H572.17C568.676 735.833 565.631 736.508 563.034 737.858C560.438 739.209 558.418 741.217 556.976 743.885C555.533 746.553 554.812 749.864 554.812 753.818V754.589C554.812 758.511 555.566 761.821 557.072 764.522C558.611 767.189 560.758 769.198 563.515 770.548C566.272 771.898 569.461 772.573 573.083 772.573H582.507V775.997H572.891ZM571.929 763.509C573.949 763.509 575.6 762.754 576.882 761.243C578.164 759.732 578.805 757.627 578.805 754.927V754.445C578.805 751.744 578.164 749.639 576.882 748.128C575.6 746.585 573.949 745.814 571.929 745.814C569.91 745.814 568.259 746.585 566.977 748.128C565.695 749.671 565.054 751.761 565.054 754.396V754.975C565.054 757.579 565.695 759.652 566.977 761.195C568.259 762.738 569.91 763.509 571.929 763.509Z" fill="#38C9A6"/>
<path d="M600.652 766.354V742.776H604.451V766.354H600.652ZM602.575 739.112C601.742 739.112 601.037 738.839 600.46 738.292C599.915 737.746 599.642 737.055 599.642 736.219C599.642 735.351 599.915 734.644 600.46 734.098C601.037 733.551 601.742 733.278 602.575 733.278C603.409 733.278 604.098 733.551 604.643 734.098C605.188 734.644 605.46 735.351 605.46 736.219C605.46 737.055 605.188 737.746 604.643 738.292C604.098 738.839 603.409 739.112 602.575 739.112Z" fill="#38C9A6"/>
<path d="M612.438 766.354V742.776H616.236V766.354H612.438ZM614.361 739.112C613.528 739.112 612.822 738.839 612.245 738.292C611.7 737.746 611.428 737.055 611.428 736.219C611.428 735.351 611.7 734.644 612.245 734.098C612.822 733.551 613.528 733.278 614.361 733.278C615.194 733.278 615.884 733.551 616.429 734.098C616.973 734.644 617.246 735.351 617.246 736.219C617.246 737.055 616.973 737.746 616.429 738.292C615.884 738.839 615.194 739.112 614.361 739.112Z" fill="#38C9A6"/>
<path d="M624.223 766.354V742.776H628.022V766.354H624.223ZM626.147 739.112C625.313 739.112 624.608 738.839 624.031 738.292C623.486 737.746 623.214 737.055 623.214 736.219C623.214 735.351 623.486 734.644 624.031 734.098C624.608 733.551 625.313 733.278 626.147 733.278C626.98 733.278 627.669 733.551 628.214 734.098C628.759 734.644 629.032 735.351 629.032 736.219C629.032 737.055 628.759 737.746 628.214 738.292C627.669 738.839 626.98 739.112 626.147 739.112Z" fill="#38C9A6"/>
<path d="M644.664 766.354C643.318 766.354 642.276 765.984 641.539 765.245C640.833 764.505 640.481 763.493 640.481 762.207V746.103H633.413V742.776H640.481V734.387H644.279V742.776H651.972V746.103H644.279V761.629C644.279 762.593 644.744 763.075 645.674 763.075H650.915V766.354H644.664Z" fill="#38C9A6"/>
<path d="M667.233 767.029C665.213 767.029 663.354 766.547 661.655 765.582C659.956 764.618 658.61 763.22 657.616 761.388C656.623 759.555 656.126 757.386 656.126 754.878V754.252C656.126 751.744 656.623 749.591 657.616 747.791C658.61 745.959 659.94 744.56 661.607 743.596C663.306 742.6 665.181 742.101 667.233 742.101C668.868 742.101 670.246 742.326 671.368 742.776C672.522 743.194 673.451 743.741 674.157 744.416C674.862 745.059 675.407 745.75 675.791 746.489H676.465V732.603H680.263V766.354H676.561V762.448H675.888C675.246 763.638 674.253 764.698 672.906 765.63C671.56 766.563 669.669 767.029 667.233 767.029ZM668.242 763.654C670.679 763.654 672.65 762.882 674.157 761.339C675.695 759.764 676.465 757.579 676.465 754.782V754.348C676.465 751.552 675.695 749.382 674.157 747.839C672.65 746.264 670.679 745.477 668.242 745.477C665.838 745.477 663.851 746.264 662.28 747.839C660.742 749.382 659.972 751.552 659.972 754.348V754.782C659.972 757.579 660.742 759.764 662.28 761.339C663.851 762.882 665.838 763.654 668.242 763.654Z" fill="#38C9A6"/>
<path d="M411.02 767.029C408.648 767.029 406.549 766.531 404.722 765.534C402.927 764.538 401.516 763.139 400.491 761.339C399.497 759.507 399 757.354 399 754.878V754.252C399 751.809 399.497 749.671 400.491 747.839C401.516 746.007 402.927 744.593 404.722 743.596C406.549 742.6 408.648 742.101 411.02 742.101C413.393 742.101 415.476 742.6 417.271 743.596C419.098 744.593 420.509 746.007 421.502 747.839C422.528 749.671 423.041 751.809 423.041 754.252V754.878C423.041 757.354 422.528 759.507 421.502 761.339C420.509 763.139 419.098 764.538 417.271 765.534C415.476 766.531 413.393 767.029 411.02 767.029ZM411.02 763.605C413.521 763.605 415.508 762.818 416.983 761.243C418.489 759.636 419.243 757.482 419.243 754.782V754.348C419.243 751.648 418.489 749.511 416.983 747.935C415.508 746.328 413.521 745.525 411.02 745.525C408.552 745.525 406.565 746.328 405.058 747.935C403.552 749.511 402.798 751.648 402.798 754.348V754.782C402.798 757.482 403.552 759.636 405.058 761.243C406.565 762.818 408.552 763.605 411.02 763.605Z" stroke="#38C9A6" stroke-width="2" mask="url(#path-6-outside-1_866_22)"/>
<path d="M432.677 766.354L427.965 742.776H431.811L435.706 763.798H436.379L441.524 742.776H447.822L452.967 763.798H453.64L457.535 742.776H461.381L456.669 766.354H450.178L444.986 745.332H444.36L439.168 766.354H432.677Z" stroke="#38C9A6" stroke-width="2" mask="url(#path-6-outside-1_866_22)"/>
<path d="M474.747 767.029C473.112 767.029 471.621 766.739 470.275 766.161C468.929 765.582 467.871 764.747 467.102 763.654C466.332 762.561 465.948 761.227 465.948 759.652C465.948 758.045 466.332 756.727 467.102 755.698C467.871 754.637 468.929 753.85 470.275 753.336C471.621 752.789 473.128 752.516 474.795 752.516H482.728V750.78C482.728 749.109 482.232 747.791 481.238 746.827C480.276 745.862 478.834 745.38 476.91 745.38C475.019 745.38 473.545 745.846 472.487 746.778C471.429 747.678 470.708 748.9 470.323 750.443L466.765 749.286C467.15 747.968 467.759 746.778 468.592 745.718C469.426 744.625 470.532 743.757 471.91 743.114C473.32 742.439 475.003 742.101 476.959 742.101C479.972 742.101 482.312 742.889 483.978 744.464C485.645 746.007 486.479 748.193 486.479 751.021V761.677C486.479 762.641 486.928 763.123 487.825 763.123H489.989V766.354H486.671C485.613 766.354 484.764 766.064 484.123 765.486C483.482 764.875 483.161 764.072 483.161 763.075V762.834H482.584C482.232 763.445 481.751 764.088 481.142 764.763C480.565 765.405 479.763 765.936 478.738 766.354C477.712 766.804 476.382 767.029 474.747 767.029ZM475.179 763.75C477.423 763.75 479.234 763.091 480.613 761.773C482.023 760.423 482.728 758.543 482.728 756.132V755.602H474.939C473.433 755.602 472.182 755.939 471.189 756.614C470.227 757.257 469.746 758.237 469.746 759.555C469.746 760.873 470.243 761.902 471.237 762.641C472.263 763.38 473.577 763.75 475.179 763.75Z" stroke="#38C9A6" stroke-width="2" mask="url(#path-6-outside-1_866_22)"/>
<path d="M504.475 767.029C501.558 767.029 499.09 766.354 497.071 765.004C495.083 763.654 493.881 761.516 493.465 758.591L497.071 757.771C497.327 759.314 497.808 760.536 498.513 761.436C499.218 762.304 500.084 762.93 501.11 763.316C502.167 763.67 503.289 763.847 504.475 763.847C506.238 763.847 507.633 763.493 508.658 762.786C509.684 762.079 510.197 761.13 510.197 759.941C510.197 758.72 509.7 757.868 508.707 757.386C507.745 756.871 506.415 756.454 504.716 756.132L502.744 755.795C501.238 755.537 499.859 755.136 498.609 754.589C497.359 754.043 496.365 753.303 495.628 752.371C494.891 751.439 494.522 750.266 494.522 748.852C494.522 746.73 495.34 745.075 496.975 743.885C498.609 742.696 500.773 742.101 503.466 742.101C506.126 742.101 508.274 742.712 509.909 743.934C511.575 745.123 512.649 746.81 513.13 748.996L509.572 749.912C509.283 748.209 508.594 747.019 507.504 746.344C506.415 745.637 505.068 745.284 503.466 745.284C501.863 745.284 500.597 745.589 499.667 746.2C498.738 746.778 498.273 747.646 498.273 748.803C498.273 749.928 498.705 750.764 499.571 751.311C500.468 751.825 501.654 752.211 503.129 752.468L505.1 752.805C506.767 753.095 508.258 753.496 509.572 754.011C510.918 754.493 511.976 755.2 512.745 756.132C513.547 757.064 513.947 758.286 513.947 759.796C513.947 762.111 513.082 763.895 511.351 765.148C509.652 766.402 507.36 767.029 504.475 767.029Z" stroke="#38C9A6" stroke-width="2" mask="url(#path-6-outside-1_866_22)"/>
<path d="M520.359 775.997V742.776H524.061V746.682H524.734C525.343 745.493 526.321 744.432 527.667 743.5C529.046 742.568 530.953 742.101 533.389 742.101C535.409 742.101 537.252 742.6 538.919 743.596C540.617 744.56 541.964 745.943 542.957 747.743C543.983 749.543 544.496 751.712 544.496 754.252V754.878C544.496 757.386 543.999 759.555 543.005 761.388C542.012 763.22 540.665 764.618 538.967 765.582C537.3 766.547 535.441 767.029 533.389 767.029C531.754 767.029 530.36 766.804 529.206 766.354C528.084 765.936 527.17 765.389 526.465 764.714C525.76 764.039 525.215 763.348 524.831 762.641H524.157V775.997H520.359ZM532.379 763.654C534.816 763.654 536.787 762.882 538.293 761.339C539.832 759.764 540.601 757.579 540.601 754.782V754.348C540.601 751.552 539.832 749.382 538.293 747.839C536.787 746.264 534.816 745.477 532.379 745.477C529.975 745.477 527.988 746.264 526.417 747.839C524.879 749.382 524.109 751.552 524.109 754.348V754.782C524.109 757.579 524.879 759.764 526.417 761.339C527.988 762.882 529.975 763.654 532.379 763.654Z" stroke="#38C9A6" stroke-width="2" mask="url(#path-6-outside-1_866_22)"/>
<path d="M572.891 775.997C568.596 775.997 564.797 775.161 561.496 773.49C558.226 771.818 555.662 769.407 553.803 766.257C551.943 763.075 551.014 759.218 551.014 754.686V753.673C551.014 749.173 551.895 745.348 553.658 742.198C555.421 739.016 557.873 736.589 561.015 734.917C564.188 733.246 567.858 732.41 572.026 732.41H573.035C577.01 732.41 580.504 733.23 583.517 734.869C586.53 736.476 588.886 738.775 590.585 741.764C592.284 744.753 593.134 748.337 593.134 752.516V754.155C593.134 758.237 592.38 761.291 590.874 763.316C589.399 765.341 587.3 766.354 584.575 766.354H582.988C581.674 766.354 580.68 766.064 580.007 765.486C579.334 764.875 578.997 764.072 578.997 763.075V762.593H578.324C578.068 763.268 577.651 763.943 577.074 764.618C576.529 765.261 575.776 765.807 574.814 766.257C573.885 766.707 572.683 766.932 571.208 766.932C569.317 766.932 567.618 766.418 566.111 765.389C564.605 764.361 563.419 762.947 562.553 761.146C561.72 759.346 561.303 757.337 561.303 755.12V754.252C561.303 751.969 561.72 749.944 562.553 748.177C563.387 746.409 564.541 745.01 566.015 743.982C567.49 742.953 569.173 742.439 571.064 742.439C572.506 742.439 573.692 742.648 574.622 743.066C575.552 743.451 576.289 743.95 576.834 744.56C577.379 745.171 577.811 745.782 578.132 746.393H578.805V743.018H582.507V761.725C582.507 762.207 582.588 762.545 582.748 762.738C582.94 762.93 583.261 763.027 583.71 763.027H584.286C586.082 763.027 587.364 762.336 588.133 760.954C588.934 759.539 589.335 757.209 589.335 753.962V752.612C589.335 749.044 588.678 746.023 587.364 743.548C586.049 741.041 584.174 739.128 581.738 737.81C579.302 736.492 576.385 735.833 572.987 735.833H572.17C568.676 735.833 565.631 736.508 563.034 737.858C560.438 739.209 558.418 741.217 556.976 743.885C555.533 746.553 554.812 749.864 554.812 753.818V754.589C554.812 758.511 555.566 761.821 557.072 764.522C558.611 767.189 560.758 769.198 563.515 770.548C566.272 771.898 569.461 772.573 573.083 772.573H582.507V775.997H572.891ZM571.929 763.509C573.949 763.509 575.6 762.754 576.882 761.243C578.164 759.732 578.805 757.627 578.805 754.927V754.445C578.805 751.744 578.164 749.639 576.882 748.128C575.6 746.585 573.949 745.814 571.929 745.814C569.91 745.814 568.259 746.585 566.977 748.128C565.695 749.671 565.054 751.761 565.054 754.396V754.975C565.054 757.579 565.695 759.652 566.977 761.195C568.259 762.738 569.91 763.509 571.929 763.509Z" stroke="#38C9A6" stroke-width="2" mask="url(#path-6-outside-1_866_22)"/>
<path d="M600.652 766.354V742.776H604.451V766.354H600.652ZM602.575 739.112C601.742 739.112 601.037 738.839 600.46 738.292C599.915 737.746 599.642 737.055 599.642 736.219C599.642 735.351 599.915 734.644 600.46 734.098C601.037 733.551 601.742 733.278 602.575 733.278C603.409 733.278 604.098 733.551 604.643 734.098C605.188 734.644 605.46 735.351 605.46 736.219C605.46 737.055 605.188 737.746 604.643 738.292C604.098 738.839 603.409 739.112 602.575 739.112Z" stroke="#38C9A6" stroke-width="2" mask="url(#path-6-outside-1_866_22)"/>
<path d="M612.438 766.354V742.776H616.236V766.354H612.438ZM614.361 739.112C613.528 739.112 612.822 738.839 612.245 738.292C611.7 737.746 611.428 737.055 611.428 736.219C611.428 735.351 611.7 734.644 612.245 734.098C612.822 733.551 613.528 733.278 614.361 733.278C615.194 733.278 615.884 733.551 616.429 734.098C616.973 734.644 617.246 735.351 617.246 736.219C617.246 737.055 616.973 737.746 616.429 738.292C615.884 738.839 615.194 739.112 614.361 739.112Z" stroke="#38C9A6" stroke-width="2" mask="url(#path-6-outside-1_866_22)"/>
<path d="M624.223 766.354V742.776H628.022V766.354H624.223ZM626.147 739.112C625.313 739.112 624.608 738.839 624.031 738.292C623.486 737.746 623.214 737.055 623.214 736.219C623.214 735.351 623.486 734.644 624.031 734.098C624.608 733.551 625.313 733.278 626.147 733.278C626.98 733.278 627.669 733.551 628.214 734.098C628.759 734.644 629.032 735.351 629.032 736.219C629.032 737.055 628.759 737.746 628.214 738.292C627.669 738.839 626.98 739.112 626.147 739.112Z" stroke="#38C9A6" stroke-width="2" mask="url(#path-6-outside-1_866_22)"/>
<path d="M644.664 766.354C643.318 766.354 642.276 765.984 641.539 765.245C640.833 764.505 640.481 763.493 640.481 762.207V746.103H633.413V742.776H640.481V734.387H644.279V742.776H651.972V746.103H644.279V761.629C644.279 762.593 644.744 763.075 645.674 763.075H650.915V766.354H644.664Z" stroke="#38C9A6" stroke-width="2" mask="url(#path-6-outside-1_866_22)"/>
<path d="M667.233 767.029C665.213 767.029 663.354 766.547 661.655 765.582C659.956 764.618 658.61 763.22 657.616 761.388C656.623 759.555 656.126 757.386 656.126 754.878V754.252C656.126 751.744 656.623 749.591 657.616 747.791C658.61 745.959 659.94 744.56 661.607 743.596C663.306 742.6 665.181 742.101 667.233 742.101C668.868 742.101 670.246 742.326 671.368 742.776C672.522 743.194 673.451 743.741 674.157 744.416C674.862 745.059 675.407 745.75 675.791 746.489H676.465V732.603H680.263V766.354H676.561V762.448H675.888C675.246 763.638 674.253 764.698 672.906 765.63C671.56 766.563 669.669 767.029 667.233 767.029ZM668.242 763.654C670.679 763.654 672.65 762.882 674.157 761.339C675.695 759.764 676.465 757.579 676.465 754.782V754.348C676.465 751.552 675.695 749.382 674.157 747.839C672.65 746.264 670.679 745.477 668.242 745.477C665.838 745.477 663.851 746.264 662.28 747.839C660.742 749.382 659.972 751.552 659.972 754.348V754.782C659.972 757.579 660.742 759.764 662.28 761.339C663.851 762.882 665.838 763.654 668.242 763.654Z" stroke="#38C9A6" stroke-width="2" mask="url(#path-6-outside-1_866_22)"/>
</svg>
