<svg width="1080" height="1080" viewBox="0 0 1080 1080" fill="none" xmlns="http://www.w3.org/2000/svg">
<path d="M706.53 456.887C707.116 457.999 710.277 464.263 712.559 469.589C712.852 470.292 714.666 474.448 716.305 479.013C723.154 497.92 726.9 518.289 726.9 539.42C726.9 637.874 646.709 718.065 548.723 718.065C530.344 718.065 512.666 715.314 495.984 710.163C525.72 700.915 553.347 682.418 572.546 657.775C578.517 650.049 583.083 641.269 587.999 632.898C624.115 617.562 649.753 581.564 649.753 539.42C649.753 497.276 624.524 462.272 588.819 446.761C588.76 443.834 588.526 441.083 588.175 438.567C587.941 436.576 587.59 434.469 587.18 432.186C582.907 409.241 574.771 387.291 567.513 368.443C566.518 365.75 564.761 362.706 564.469 361.419C571.376 362.063 579.044 363.175 587.297 365.048C592.741 366.277 605.15 369.321 619.022 375.35C624.817 377.867 648.699 388.637 672.756 412.109C672.756 412.109 694.004 432.83 706.53 456.887Z" fill="#67686B"/>
<path d="M563.301 640.04C561.662 644.898 556.569 649.873 553.116 653.62C537.721 670.419 517.761 683.706 496.338 691.491C486.738 695.003 469.412 689.559 459.169 690.145C460.105 689.052 461.374 687.842 462.974 686.516L463.208 686.281L522.737 629.738C534.794 628.45 548.433 640.567 563.301 640.04Z" fill="#C4C6C8"/>
<path d="M510.268 613.582C510.21 614.168 510.092 614.812 509.917 615.455C509.624 616.216 509.273 616.977 508.805 617.738L507.985 618.675L436.691 686.515L434.116 686.34C433.296 686.34 432.477 686.164 431.599 686.047C423.931 684.818 410.292 684.115 392.791 684.057C386.176 684.057 380.499 684.408 376.343 684.701C374.06 684.877 372.187 684.994 370.841 684.994L352.52 685.286L490.366 584.198C492.24 583.554 494.23 583.496 496.044 584.081C497.625 584.491 499.264 585.662 500.376 587.301C505.293 593.33 511.322 605.563 510.268 613.582Z" fill="#C4C6C8"/>
<path d="M356.617 658.887C357.085 641.152 356.617 625.406 356.617 607.612C356.617 602.051 360.305 600.529 363.349 598.949C364.344 598.422 450.447 552.824 451.969 552.063C454.31 550.893 456.71 549.956 459.285 549.956C465.49 549.956 469.119 555.692 472.514 561.019C474.329 563.887 476.494 567.224 477.08 570.267L356.617 658.887Z" fill="#C4C6C8"/>
<path d="M611.941 249.327C610.302 246.517 606.731 245.581 603.922 247.22L518.287 297.383L504.063 305.695L499.907 321.733L494.58 342.337C490.834 343.449 487.205 345.088 483.869 347.254C485.391 333.44 486.912 319.567 488.376 305.753C488.376 305.753 572.665 238.791 575.006 236.449C577.347 234.108 577.933 230.713 575.884 228.196C573.894 225.679 570.206 225.269 567.689 227.259L490.19 289.247L477.254 299.607C475.147 319.216 473.04 338.825 470.874 358.434C470.64 358.668 470.406 358.96 470.172 359.253C459.285 372.657 458.231 387.759 456.416 404.265C456.416 402.919 431.305 399.056 429.432 398.705C416.613 396.48 404.321 392.149 392.322 399.29C387.171 402.334 382.078 405.378 376.927 408.421C361.123 417.787 345.319 427.211 329.457 436.635C309.204 448.693 289.068 460.692 268.816 472.633C223.335 499.675 177.913 526.601 132.491 553.527C118.208 562.014 102.17 569.565 89 579.574C93.4486 587.301 101.409 594.208 110.189 599.476C113.233 601.349 116.394 603.046 119.613 604.392C124.354 606.558 128.979 608.08 133.427 609.075C156.548 614.109 181.249 612.061 204.194 607.202C211.336 605.68 218.477 603.866 225.501 601.7C236.739 598.247 243.412 593.798 250.787 584.491C269.108 561.312 287.429 538.132 305.751 514.953C321.145 495.403 336.539 475.911 351.934 456.361C359.25 503.305 352.343 580.92 352.343 580.92C352.343 580.92 432.125 547.673 447.929 522.855C456.241 509.86 464.611 496.983 473.333 484.281C477.664 477.96 482.113 471.638 486.62 465.433C490.483 460.048 495.868 454.956 497.097 448.4C496.512 452.263 518.404 457.297 520.979 457.999C531.632 461.043 542.754 464.555 553.934 464.555C568.274 464.555 572.899 457.941 570.674 440.732C568.684 425.221 564.47 410.119 559.845 395.251C556.451 384.306 551.709 373.594 545.036 364.17C538.071 354.336 527.945 345.849 516.297 342.395C513.253 341.459 510.15 340.932 506.931 340.756L514.072 313.363L609.716 257.287C612.526 255.648 613.462 252.078 611.823 249.268L611.941 249.327Z" fill="#C4C6C8"/>
<mask id="path-6-outside-1_864_2" maskUnits="userSpaceOnUse" x="398" y="810.41" width="284" height="46" fill="black">
<rect fill="white" x="398" y="810.41" width="284" height="46"/>
<path d="M411.02 846.028C408.648 846.028 406.549 845.53 404.722 844.534C402.927 843.537 401.516 842.139 400.491 840.339C399.497 838.507 399 836.353 399 833.878V833.251C399 830.809 399.497 828.671 400.491 826.839C401.516 825.007 402.927 823.592 404.722 822.596C406.549 821.599 408.648 821.101 411.02 821.101C413.393 821.101 415.476 821.599 417.271 822.596C419.098 823.592 420.509 825.007 421.502 826.839C422.528 828.671 423.041 830.809 423.041 833.251V833.878C423.041 836.353 422.528 838.507 421.502 840.339C420.509 842.139 419.098 843.537 417.271 844.534C415.476 845.53 413.393 846.028 411.02 846.028ZM411.02 842.605C413.521 842.605 415.508 841.818 416.983 840.243C418.489 838.635 419.243 836.482 419.243 833.782V833.348C419.243 830.648 418.489 828.51 416.983 826.935C415.508 825.328 413.521 824.524 411.02 824.524C408.552 824.524 406.565 825.328 405.058 826.935C403.552 828.51 402.798 830.648 402.798 833.348V833.782C402.798 836.482 403.552 838.635 405.058 840.243C406.565 841.818 408.552 842.605 411.02 842.605Z"/>
<path d="M432.677 845.353L427.965 821.776H431.811L435.706 842.798H436.379L441.524 821.776H447.822L452.967 842.798H453.64L457.535 821.776H461.381L456.669 845.353H450.178L444.986 824.332H444.36L439.168 845.353H432.677Z"/>
<path d="M474.747 846.028C473.112 846.028 471.621 845.739 470.275 845.161C468.929 844.582 467.871 843.746 467.102 842.653C466.332 841.561 465.948 840.227 465.948 838.652C465.948 837.044 466.332 835.726 467.102 834.698C467.871 833.637 468.929 832.85 470.275 832.335C471.621 831.789 473.128 831.516 474.795 831.516H482.728V829.78C482.728 828.108 482.232 826.791 481.238 825.826C480.276 824.862 478.834 824.38 476.91 824.38C475.019 824.38 473.545 824.846 472.487 825.778C471.429 826.678 470.708 827.9 470.323 829.442L466.765 828.285C467.15 826.967 467.759 825.778 468.592 824.717C469.426 823.624 470.532 822.757 471.91 822.114C473.32 821.439 475.003 821.101 476.959 821.101C479.972 821.101 482.312 821.889 483.978 823.464C485.645 825.007 486.479 827.192 486.479 830.021V840.677C486.479 841.641 486.928 842.123 487.825 842.123H489.989V845.353H486.671C485.613 845.353 484.764 845.064 484.123 844.486C483.482 843.875 483.161 843.071 483.161 842.075V841.834H482.584C482.232 842.444 481.751 843.087 481.142 843.762C480.565 844.405 479.763 844.936 478.738 845.353C477.712 845.803 476.382 846.028 474.747 846.028ZM475.179 842.75C477.423 842.75 479.234 842.091 480.613 840.773C482.023 839.423 482.728 837.543 482.728 835.132V834.601H474.939C473.433 834.601 472.182 834.939 471.189 835.614C470.227 836.257 469.746 837.237 469.746 838.555C469.746 839.873 470.243 840.902 471.237 841.641C472.263 842.38 473.577 842.75 475.179 842.75Z"/>
<path d="M504.475 846.028C501.558 846.028 499.09 845.353 497.071 844.003C495.083 842.653 493.881 840.516 493.465 837.591L497.071 836.771C497.327 838.314 497.808 839.535 498.513 840.436C499.218 841.303 500.084 841.93 501.11 842.316C502.167 842.669 503.289 842.846 504.475 842.846C506.238 842.846 507.633 842.493 508.658 841.786C509.684 841.078 510.197 840.13 510.197 838.941C510.197 837.719 509.7 836.868 508.707 836.385C507.745 835.871 506.415 835.453 504.716 835.132L502.744 834.794C501.238 834.537 499.859 834.135 498.609 833.589C497.359 833.043 496.365 832.303 495.628 831.371C494.891 830.439 494.522 829.266 494.522 827.851C494.522 825.73 495.34 824.074 496.975 822.885C498.609 821.696 500.773 821.101 503.466 821.101C506.126 821.101 508.274 821.712 509.909 822.933C511.575 824.123 512.649 825.81 513.13 827.996L509.572 828.912C509.284 827.208 508.594 826.019 507.504 825.344C506.415 824.637 505.068 824.283 503.466 824.283C501.863 824.283 500.597 824.589 499.667 825.199C498.738 825.778 498.273 826.646 498.273 827.803C498.273 828.928 498.705 829.764 499.571 830.31C500.468 830.825 501.655 831.21 503.129 831.467L505.1 831.805C506.767 832.094 508.258 832.496 509.572 833.01C510.918 833.493 511.976 834.2 512.745 835.132C513.547 836.064 513.947 837.285 513.947 838.796C513.947 841.111 513.082 842.894 511.351 844.148C509.652 845.402 507.36 846.028 504.475 846.028Z"/>
<path d="M520.359 854.997V821.776H524.061V825.682H524.734C525.343 824.492 526.321 823.432 527.667 822.499C529.046 821.567 530.953 821.101 533.389 821.101C535.409 821.101 537.252 821.599 538.919 822.596C540.617 823.56 541.964 824.942 542.957 826.742C543.983 828.542 544.496 830.712 544.496 833.251V833.878C544.496 836.385 543.999 838.555 543.005 840.387C542.012 842.219 540.665 843.618 538.967 844.582C537.3 845.546 535.441 846.028 533.389 846.028C531.754 846.028 530.36 845.803 529.206 845.353C528.084 844.936 527.17 844.389 526.465 843.714C525.76 843.039 525.215 842.348 524.831 841.641H524.157V854.997H520.359ZM532.379 842.653C534.816 842.653 536.787 841.882 538.293 840.339C539.832 838.764 540.601 836.578 540.601 833.782V833.348C540.601 830.551 539.832 828.382 538.293 826.839C536.787 825.264 534.816 824.476 532.379 824.476C529.975 824.476 527.988 825.264 526.417 826.839C524.879 828.382 524.109 830.551 524.109 833.348V833.782C524.109 836.578 524.879 838.764 526.417 840.339C527.988 841.882 529.975 842.653 532.379 842.653Z"/>
<path d="M572.891 854.997C568.596 854.997 564.797 854.161 561.496 852.489C558.226 850.818 555.662 848.407 553.803 845.257C551.943 842.075 551.014 838.218 551.014 833.685V832.673C551.014 828.173 551.895 824.348 553.658 821.198C555.421 818.015 557.873 815.589 561.015 813.917C564.188 812.246 567.858 811.41 572.026 811.41H573.035C577.01 811.41 580.504 812.23 583.517 813.869C586.53 815.476 588.886 817.774 590.585 820.764C592.284 823.753 593.134 827.337 593.134 831.516V833.155C593.134 837.237 592.38 840.291 590.874 842.316C589.399 844.341 587.3 845.353 584.575 845.353H582.988C581.674 845.353 580.68 845.064 580.007 844.486C579.334 843.875 578.997 843.071 578.997 842.075V841.593H578.324C578.068 842.268 577.651 842.943 577.074 843.618C576.529 844.261 575.776 844.807 574.814 845.257C573.885 845.707 572.683 845.932 571.208 845.932C569.317 845.932 567.618 845.418 566.111 844.389C564.605 843.361 563.419 841.946 562.553 840.146C561.72 838.346 561.303 836.337 561.303 834.119V833.251C561.303 830.969 561.72 828.944 562.553 827.176C563.387 825.408 564.541 824.01 566.015 822.982C567.49 821.953 569.173 821.439 571.064 821.439C572.506 821.439 573.692 821.648 574.622 822.065C575.552 822.451 576.289 822.949 576.834 823.56C577.379 824.171 577.811 824.782 578.132 825.392H578.805V822.017H582.507V840.725C582.507 841.207 582.588 841.544 582.748 841.737C582.94 841.93 583.261 842.027 583.71 842.027H584.286C586.082 842.027 587.364 841.336 588.133 839.953C588.934 838.539 589.335 836.209 589.335 832.962V831.612C589.335 828.044 588.678 825.023 587.364 822.548C586.049 820.04 584.174 818.128 581.738 816.81C579.302 815.492 576.385 814.833 572.987 814.833H572.17C568.676 814.833 565.631 815.508 563.034 816.858C560.438 818.208 558.418 820.217 556.976 822.885C555.533 825.553 554.812 828.864 554.812 832.817V833.589C554.812 837.51 555.566 840.821 557.072 843.521C558.611 846.189 560.758 848.198 563.515 849.548C566.272 850.898 569.461 851.573 573.083 851.573H582.507V854.997H572.891ZM571.929 842.509C573.949 842.509 575.6 841.753 576.882 840.243C578.164 838.732 578.805 836.627 578.805 833.926V833.444C578.805 830.744 578.164 828.639 576.882 827.128C575.6 825.585 573.949 824.814 571.929 824.814C569.91 824.814 568.259 825.585 566.977 827.128C565.695 828.671 565.054 830.76 565.054 833.396V833.975C565.054 836.578 565.695 838.652 566.977 840.194C568.259 841.737 569.91 842.509 571.929 842.509Z"/>
<path d="M600.652 845.353V821.776H604.451V845.353H600.652ZM602.575 818.112C601.742 818.112 601.037 817.839 600.46 817.292C599.915 816.746 599.642 816.055 599.642 815.219C599.642 814.351 599.915 813.644 600.46 813.097C601.037 812.551 601.742 812.278 602.575 812.278C603.409 812.278 604.098 812.551 604.643 813.097C605.188 813.644 605.46 814.351 605.46 815.219C605.46 816.055 605.188 816.746 604.643 817.292C604.098 817.839 603.409 818.112 602.575 818.112Z"/>
<path d="M612.438 845.353V821.776H616.236V845.353H612.438ZM614.361 818.112C613.528 818.112 612.822 817.839 612.245 817.292C611.7 816.746 611.428 816.055 611.428 815.219C611.428 814.351 611.7 813.644 612.245 813.097C612.822 812.551 613.528 812.278 614.361 812.278C615.194 812.278 615.884 812.551 616.429 813.097C616.973 813.644 617.246 814.351 617.246 815.219C617.246 816.055 616.973 816.746 616.429 817.292C615.884 817.839 615.194 818.112 614.361 818.112Z"/>
<path d="M624.223 845.353V821.776H628.022V845.353H624.223ZM626.147 818.112C625.313 818.112 624.608 817.839 624.031 817.292C623.486 816.746 623.214 816.055 623.214 815.219C623.214 814.351 623.486 813.644 624.031 813.097C624.608 812.551 625.313 812.278 626.147 812.278C626.98 812.278 627.669 812.551 628.214 813.097C628.759 813.644 629.032 814.351 629.032 815.219C629.032 816.055 628.759 816.746 628.214 817.292C627.669 817.839 626.98 818.112 626.147 818.112Z"/>
<path d="M644.664 845.353C643.318 845.353 642.276 844.984 641.539 844.245C640.833 843.505 640.481 842.493 640.481 841.207V825.103H633.413V821.776H640.481V813.387H644.279V821.776H651.972V825.103H644.279V840.628C644.279 841.593 644.744 842.075 645.674 842.075H650.915V845.353H644.664Z"/>
<path d="M667.233 846.028C665.213 846.028 663.354 845.546 661.655 844.582C659.956 843.618 658.61 842.219 657.616 840.387C656.623 838.555 656.126 836.385 656.126 833.878V833.251C656.126 830.744 656.623 828.591 657.616 826.791C658.61 824.958 659.94 823.56 661.607 822.596C663.306 821.599 665.181 821.101 667.233 821.101C668.868 821.101 670.246 821.326 671.368 821.776C672.522 822.194 673.451 822.741 674.157 823.416C674.862 824.058 675.407 824.749 675.791 825.489H676.465V811.603H680.263V845.353H676.561V841.448H675.888C675.246 842.637 674.253 843.698 672.906 844.63C671.56 845.562 669.669 846.028 667.233 846.028ZM668.242 842.653C670.679 842.653 672.65 841.882 674.157 840.339C675.695 838.764 676.465 836.578 676.465 833.782V833.348C676.465 830.551 675.695 828.382 674.157 826.839C672.65 825.264 670.679 824.476 668.242 824.476C665.838 824.476 663.851 825.264 662.28 826.839C660.742 828.382 659.972 830.551 659.972 833.348V833.782C659.972 836.578 660.742 838.764 662.28 840.339C663.851 841.882 665.838 842.653 668.242 842.653Z"/>
</mask>
<path d="M411.02 846.028C408.648 846.028 406.549 845.53 404.722 844.534C402.927 843.537 401.516 842.139 400.491 840.339C399.497 838.507 399 836.353 399 833.878V833.251C399 830.809 399.497 828.671 400.491 826.839C401.516 825.007 402.927 823.592 404.722 822.596C406.549 821.599 408.648 821.101 411.02 821.101C413.393 821.101 415.476 821.599 417.271 822.596C419.098 823.592 420.509 825.007 421.502 826.839C422.528 828.671 423.041 830.809 423.041 833.251V833.878C423.041 836.353 422.528 838.507 421.502 840.339C420.509 842.139 419.098 843.537 417.271 844.534C415.476 845.53 413.393 846.028 411.02 846.028ZM411.02 842.605C413.521 842.605 415.508 841.818 416.983 840.243C418.489 838.635 419.243 836.482 419.243 833.782V833.348C419.243 830.648 418.489 828.51 416.983 826.935C415.508 825.328 413.521 824.524 411.02 824.524C408.552 824.524 406.565 825.328 405.058 826.935C403.552 828.51 402.798 830.648 402.798 833.348V833.782C402.798 836.482 403.552 838.635 405.058 840.243C406.565 841.818 408.552 842.605 411.02 842.605Z" fill="#C4C6C8"/>
<path d="M432.677 845.353L427.965 821.776H431.811L435.706 842.798H436.379L441.524 821.776H447.822L452.967 842.798H453.64L457.535 821.776H461.381L456.669 845.353H450.178L444.986 824.332H444.36L439.168 845.353H432.677Z" fill="#C4C6C8"/>
<path d="M474.747 846.028C473.112 846.028 471.621 845.739 470.275 845.161C468.929 844.582 467.871 843.746 467.102 842.653C466.332 841.561 465.948 840.227 465.948 838.652C465.948 837.044 466.332 835.726 467.102 834.698C467.871 833.637 468.929 832.85 470.275 832.335C471.621 831.789 473.128 831.516 474.795 831.516H482.728V829.78C482.728 828.108 482.232 826.791 481.238 825.826C480.276 824.862 478.834 824.38 476.91 824.38C475.019 824.38 473.545 824.846 472.487 825.778C471.429 826.678 470.708 827.9 470.323 829.442L466.765 828.285C467.15 826.967 467.759 825.778 468.592 824.717C469.426 823.624 470.532 822.757 471.91 822.114C473.32 821.439 475.003 821.101 476.959 821.101C479.972 821.101 482.312 821.889 483.978 823.464C485.645 825.007 486.479 827.192 486.479 830.021V840.677C486.479 841.641 486.928 842.123 487.825 842.123H489.989V845.353H486.671C485.613 845.353 484.764 845.064 484.123 844.486C483.482 843.875 483.161 843.071 483.161 842.075V841.834H482.584C482.232 842.444 481.751 843.087 481.142 843.762C480.565 844.405 479.763 844.936 478.738 845.353C477.712 845.803 476.382 846.028 474.747 846.028ZM475.179 842.75C477.423 842.75 479.234 842.091 480.613 840.773C482.023 839.423 482.728 837.543 482.728 835.132V834.601H474.939C473.433 834.601 472.182 834.939 471.189 835.614C470.227 836.257 469.746 837.237 469.746 838.555C469.746 839.873 470.243 840.902 471.237 841.641C472.263 842.38 473.577 842.75 475.179 842.75Z" fill="#C4C6C8"/>
<path d="M504.475 846.028C501.558 846.028 499.09 845.353 497.071 844.003C495.083 842.653 493.881 840.516 493.465 837.591L497.071 836.771C497.327 838.314 497.808 839.535 498.513 840.436C499.218 841.303 500.084 841.93 501.11 842.316C502.167 842.669 503.289 842.846 504.475 842.846C506.238 842.846 507.633 842.493 508.658 841.786C509.684 841.078 510.197 840.13 510.197 838.941C510.197 837.719 509.7 836.868 508.707 836.385C507.745 835.871 506.415 835.453 504.716 835.132L502.744 834.794C501.238 834.537 499.859 834.135 498.609 833.589C497.359 833.043 496.365 832.303 495.628 831.371C494.891 830.439 494.522 829.266 494.522 827.851C494.522 825.73 495.34 824.074 496.975 822.885C498.609 821.696 500.773 821.101 503.466 821.101C506.126 821.101 508.274 821.712 509.909 822.933C511.575 824.123 512.649 825.81 513.13 827.996L509.572 828.912C509.284 827.208 508.594 826.019 507.504 825.344C506.415 824.637 505.068 824.283 503.466 824.283C501.863 824.283 500.597 824.589 499.667 825.199C498.738 825.778 498.273 826.646 498.273 827.803C498.273 828.928 498.705 829.764 499.571 830.31C500.468 830.825 501.655 831.21 503.129 831.467L505.1 831.805C506.767 832.094 508.258 832.496 509.572 833.01C510.918 833.493 511.976 834.2 512.745 835.132C513.547 836.064 513.947 837.285 513.947 838.796C513.947 841.111 513.082 842.894 511.351 844.148C509.652 845.402 507.36 846.028 504.475 846.028Z" fill="#C4C6C8"/>
<path d="M520.359 854.997V821.776H524.061V825.682H524.734C525.343 824.492 526.321 823.432 527.667 822.499C529.046 821.567 530.953 821.101 533.389 821.101C535.409 821.101 537.252 821.599 538.919 822.596C540.617 823.56 541.964 824.942 542.957 826.742C543.983 828.542 544.496 830.712 544.496 833.251V833.878C544.496 836.385 543.999 838.555 543.005 840.387C542.012 842.219 540.665 843.618 538.967 844.582C537.3 845.546 535.441 846.028 533.389 846.028C531.754 846.028 530.36 845.803 529.206 845.353C528.084 844.936 527.17 844.389 526.465 843.714C525.76 843.039 525.215 842.348 524.831 841.641H524.157V854.997H520.359ZM532.379 842.653C534.816 842.653 536.787 841.882 538.293 840.339C539.832 838.764 540.601 836.578 540.601 833.782V833.348C540.601 830.551 539.832 828.382 538.293 826.839C536.787 825.264 534.816 824.476 532.379 824.476C529.975 824.476 527.988 825.264 526.417 826.839C524.879 828.382 524.109 830.551 524.109 833.348V833.782C524.109 836.578 524.879 838.764 526.417 840.339C527.988 841.882 529.975 842.653 532.379 842.653Z" fill="#C4C6C8"/>
<path d="M572.891 854.997C568.596 854.997 564.797 854.161 561.496 852.489C558.226 850.818 555.662 848.407 553.803 845.257C551.943 842.075 551.014 838.218 551.014 833.685V832.673C551.014 828.173 551.895 824.348 553.658 821.198C555.421 818.015 557.873 815.589 561.015 813.917C564.188 812.246 567.858 811.41 572.026 811.41H573.035C577.01 811.41 580.504 812.23 583.517 813.869C586.53 815.476 588.886 817.774 590.585 820.764C592.284 823.753 593.134 827.337 593.134 831.516V833.155C593.134 837.237 592.38 840.291 590.874 842.316C589.399 844.341 587.3 845.353 584.575 845.353H582.988C581.674 845.353 580.68 845.064 580.007 844.486C579.334 843.875 578.997 843.071 578.997 842.075V841.593H578.324C578.068 842.268 577.651 842.943 577.074 843.618C576.529 844.261 575.776 844.807 574.814 845.257C573.885 845.707 572.683 845.932 571.208 845.932C569.317 845.932 567.618 845.418 566.111 844.389C564.605 843.361 563.419 841.946 562.553 840.146C561.72 838.346 561.303 836.337 561.303 834.119V833.251C561.303 830.969 561.72 828.944 562.553 827.176C563.387 825.408 564.541 824.01 566.015 822.982C567.49 821.953 569.173 821.439 571.064 821.439C572.506 821.439 573.692 821.648 574.622 822.065C575.552 822.451 576.289 822.949 576.834 823.56C577.379 824.171 577.811 824.782 578.132 825.392H578.805V822.017H582.507V840.725C582.507 841.207 582.588 841.544 582.748 841.737C582.94 841.93 583.261 842.027 583.71 842.027H584.286C586.082 842.027 587.364 841.336 588.133 839.953C588.934 838.539 589.335 836.209 589.335 832.962V831.612C589.335 828.044 588.678 825.023 587.364 822.548C586.049 820.04 584.174 818.128 581.738 816.81C579.302 815.492 576.385 814.833 572.987 814.833H572.17C568.676 814.833 565.631 815.508 563.034 816.858C560.438 818.208 558.418 820.217 556.976 822.885C555.533 825.553 554.812 828.864 554.812 832.817V833.589C554.812 837.51 555.566 840.821 557.072 843.521C558.611 846.189 560.758 848.198 563.515 849.548C566.272 850.898 569.461 851.573 573.083 851.573H582.507V854.997H572.891ZM571.929 842.509C573.949 842.509 575.6 841.753 576.882 840.243C578.164 838.732 578.805 836.627 578.805 833.926V833.444C578.805 830.744 578.164 828.639 576.882 827.128C575.6 825.585 573.949 824.814 571.929 824.814C569.91 824.814 568.259 825.585 566.977 827.128C565.695 828.671 565.054 830.76 565.054 833.396V833.975C565.054 836.578 565.695 838.652 566.977 840.194C568.259 841.737 569.91 842.509 571.929 842.509Z" fill="#C4C6C8"/>
<path d="M600.652 845.353V821.776H604.451V845.353H600.652ZM602.575 818.112C601.742 818.112 601.037 817.839 600.46 817.292C599.915 816.746 599.642 816.055 599.642 815.219C599.642 814.351 599.915 813.644 600.46 813.097C601.037 812.551 601.742 812.278 602.575 812.278C603.409 812.278 604.098 812.551 604.643 813.097C605.188 813.644 605.46 814.351 605.46 815.219C605.46 816.055 605.188 816.746 604.643 817.292C604.098 817.839 603.409 818.112 602.575 818.112Z" fill="#C4C6C8"/>
<path d="M612.438 845.353V821.776H616.236V845.353H612.438ZM614.361 818.112C613.528 818.112 612.822 817.839 612.245 817.292C611.7 816.746 611.428 816.055 611.428 815.219C611.428 814.351 611.7 813.644 612.245 813.097C612.822 812.551 613.528 812.278 614.361 812.278C615.194 812.278 615.884 812.551 616.429 813.097C616.973 813.644 617.246 814.351 617.246 815.219C617.246 816.055 616.973 816.746 616.429 817.292C615.884 817.839 615.194 818.112 614.361 818.112Z" fill="#C4C6C8"/>
<path d="M624.223 845.353V821.776H628.022V845.353H624.223ZM626.147 818.112C625.313 818.112 624.608 817.839 624.031 817.292C623.486 816.746 623.214 816.055 623.214 815.219C623.214 814.351 623.486 813.644 624.031 813.097C624.608 812.551 625.313 812.278 626.147 812.278C626.98 812.278 627.669 812.551 628.214 813.097C628.759 813.644 629.032 814.351 629.032 815.219C629.032 816.055 628.759 816.746 628.214 817.292C627.669 817.839 626.98 818.112 626.147 818.112Z" fill="#C4C6C8"/>
<path d="M644.664 845.353C643.318 845.353 642.276 844.984 641.539 844.245C640.833 843.505 640.481 842.493 640.481 841.207V825.103H633.413V821.776H640.481V813.387H644.279V821.776H651.972V825.103H644.279V840.628C644.279 841.593 644.744 842.075 645.674 842.075H650.915V845.353H644.664Z" fill="#C4C6C8"/>
<path d="M667.233 846.028C665.213 846.028 663.354 845.546 661.655 844.582C659.956 843.618 658.61 842.219 657.616 840.387C656.623 838.555 656.126 836.385 656.126 833.878V833.251C656.126 830.744 656.623 828.591 657.616 826.791C658.61 824.958 659.94 823.56 661.607 822.596C663.306 821.599 665.181 821.101 667.233 821.101C668.868 821.101 670.246 821.326 671.368 821.776C672.522 822.194 673.451 822.741 674.157 823.416C674.862 824.058 675.407 824.749 675.791 825.489H676.465V811.603H680.263V845.353H676.561V841.448H675.888C675.246 842.637 674.253 843.698 672.906 844.63C671.56 845.562 669.669 846.028 667.233 846.028ZM668.242 842.653C670.679 842.653 672.65 841.882 674.157 840.339C675.695 838.764 676.465 836.578 676.465 833.782V833.348C676.465 830.551 675.695 828.382 674.157 826.839C672.65 825.264 670.679 824.476 668.242 824.476C665.838 824.476 663.851 825.264 662.28 826.839C660.742 828.382 659.972 830.551 659.972 833.348V833.782C659.972 836.578 660.742 838.764 662.28 840.339C663.851 841.882 665.838 842.653 668.242 842.653Z" fill="#C4C6C8"/>
<path d="M411.02 846.028C408.648 846.028 406.549 845.53 404.722 844.534C402.927 843.537 401.516 842.139 400.491 840.339C399.497 838.507 399 836.353 399 833.878V833.251C399 830.809 399.497 828.671 400.491 826.839C401.516 825.007 402.927 823.592 404.722 822.596C406.549 821.599 408.648 821.101 411.02 821.101C413.393 821.101 415.476 821.599 417.271 822.596C419.098 823.592 420.509 825.007 421.502 826.839C422.528 828.671 423.041 830.809 423.041 833.251V833.878C423.041 836.353 422.528 838.507 421.502 840.339C420.509 842.139 419.098 843.537 417.271 844.534C415.476 845.53 413.393 846.028 411.02 846.028ZM411.02 842.605C413.521 842.605 415.508 841.818 416.983 840.243C418.489 838.635 419.243 836.482 419.243 833.782V833.348C419.243 830.648 418.489 828.51 416.983 826.935C415.508 825.328 413.521 824.524 411.02 824.524C408.552 824.524 406.565 825.328 405.058 826.935C403.552 828.51 402.798 830.648 402.798 833.348V833.782C402.798 836.482 403.552 838.635 405.058 840.243C406.565 841.818 408.552 842.605 411.02 842.605Z" stroke="#C4C6C8" stroke-width="2" mask="url(#path-6-outside-1_864_2)"/>
<path d="M432.677 845.353L427.965 821.776H431.811L435.706 842.798H436.379L441.524 821.776H447.822L452.967 842.798H453.64L457.535 821.776H461.381L456.669 845.353H450.178L444.986 824.332H444.36L439.168 845.353H432.677Z" stroke="#C4C6C8" stroke-width="2" mask="url(#path-6-outside-1_864_2)"/>
<path d="M474.747 846.028C473.112 846.028 471.621 845.739 470.275 845.161C468.929 844.582 467.871 843.746 467.102 842.653C466.332 841.561 465.948 840.227 465.948 838.652C465.948 837.044 466.332 835.726 467.102 834.698C467.871 833.637 468.929 832.85 470.275 832.335C471.621 831.789 473.128 831.516 474.795 831.516H482.728V829.78C482.728 828.108 482.232 826.791 481.238 825.826C480.276 824.862 478.834 824.38 476.91 824.38C475.019 824.38 473.545 824.846 472.487 825.778C471.429 826.678 470.708 827.9 470.323 829.442L466.765 828.285C467.15 826.967 467.759 825.778 468.592 824.717C469.426 823.624 470.532 822.757 471.91 822.114C473.32 821.439 475.003 821.101 476.959 821.101C479.972 821.101 482.312 821.889 483.978 823.464C485.645 825.007 486.479 827.192 486.479 830.021V840.677C486.479 841.641 486.928 842.123 487.825 842.123H489.989V845.353H486.671C485.613 845.353 484.764 845.064 484.123 844.486C483.482 843.875 483.161 843.071 483.161 842.075V841.834H482.584C482.232 842.444 481.751 843.087 481.142 843.762C480.565 844.405 479.763 844.936 478.738 845.353C477.712 845.803 476.382 846.028 474.747 846.028ZM475.179 842.75C477.423 842.75 479.234 842.091 480.613 840.773C482.023 839.423 482.728 837.543 482.728 835.132V834.601H474.939C473.433 834.601 472.182 834.939 471.189 835.614C470.227 836.257 469.746 837.237 469.746 838.555C469.746 839.873 470.243 840.902 471.237 841.641C472.263 842.38 473.577 842.75 475.179 842.75Z" stroke="#C4C6C8" stroke-width="2" mask="url(#path-6-outside-1_864_2)"/>
<path d="M504.475 846.028C501.558 846.028 499.09 845.353 497.071 844.003C495.083 842.653 493.881 840.516 493.465 837.591L497.071 836.771C497.327 838.314 497.808 839.535 498.513 840.436C499.218 841.303 500.084 841.93 501.11 842.316C502.167 842.669 503.289 842.846 504.475 842.846C506.238 842.846 507.633 842.493 508.658 841.786C509.684 841.078 510.197 840.13 510.197 838.941C510.197 837.719 509.7 836.868 508.707 836.385C507.745 835.871 506.415 835.453 504.716 835.132L502.744 834.794C501.238 834.537 499.859 834.135 498.609 833.589C497.359 833.043 496.365 832.303 495.628 831.371C494.891 830.439 494.522 829.266 494.522 827.851C494.522 825.73 495.34 824.074 496.975 822.885C498.609 821.696 500.773 821.101 503.466 821.101C506.126 821.101 508.274 821.712 509.909 822.933C511.575 824.123 512.649 825.81 513.13 827.996L509.572 828.912C509.284 827.208 508.594 826.019 507.504 825.344C506.415 824.637 505.068 824.283 503.466 824.283C501.863 824.283 500.597 824.589 499.667 825.199C498.738 825.778 498.273 826.646 498.273 827.803C498.273 828.928 498.705 829.764 499.571 830.31C500.468 830.825 501.655 831.21 503.129 831.467L505.1 831.805C506.767 832.094 508.258 832.496 509.572 833.01C510.918 833.493 511.976 834.2 512.745 835.132C513.547 836.064 513.947 837.285 513.947 838.796C513.947 841.111 513.082 842.894 511.351 844.148C509.652 845.402 507.36 846.028 504.475 846.028Z" stroke="#C4C6C8" stroke-width="2" mask="url(#path-6-outside-1_864_2)"/>
<path d="M520.359 854.997V821.776H524.061V825.682H524.734C525.343 824.492 526.321 823.432 527.667 822.499C529.046 821.567 530.953 821.101 533.389 821.101C535.409 821.101 537.252 821.599 538.919 822.596C540.617 823.56 541.964 824.942 542.957 826.742C543.983 828.542 544.496 830.712 544.496 833.251V833.878C544.496 836.385 543.999 838.555 543.005 840.387C542.012 842.219 540.665 843.618 538.967 844.582C537.3 845.546 535.441 846.028 533.389 846.028C531.754 846.028 530.36 845.803 529.206 845.353C528.084 844.936 527.17 844.389 526.465 843.714C525.76 843.039 525.215 842.348 524.831 841.641H524.157V854.997H520.359ZM532.379 842.653C534.816 842.653 536.787 841.882 538.293 840.339C539.832 838.764 540.601 836.578 540.601 833.782V833.348C540.601 830.551 539.832 828.382 538.293 826.839C536.787 825.264 534.816 824.476 532.379 824.476C529.975 824.476 527.988 825.264 526.417 826.839C524.879 828.382 524.109 830.551 524.109 833.348V833.782C524.109 836.578 524.879 838.764 526.417 840.339C527.988 841.882 529.975 842.653 532.379 842.653Z" stroke="#C4C6C8" stroke-width="2" mask="url(#path-6-outside-1_864_2)"/>
<path d="M572.891 854.997C568.596 854.997 564.797 854.161 561.496 852.489C558.226 850.818 555.662 848.407 553.803 845.257C551.943 842.075 551.014 838.218 551.014 833.685V832.673C551.014 828.173 551.895 824.348 553.658 821.198C555.421 818.015 557.873 815.589 561.015 813.917C564.188 812.246 567.858 811.41 572.026 811.41H573.035C577.01 811.41 580.504 812.23 583.517 813.869C586.53 815.476 588.886 817.774 590.585 820.764C592.284 823.753 593.134 827.337 593.134 831.516V833.155C593.134 837.237 592.38 840.291 590.874 842.316C589.399 844.341 587.3 845.353 584.575 845.353H582.988C581.674 845.353 580.68 845.064 580.007 844.486C579.334 843.875 578.997 843.071 578.997 842.075V841.593H578.324C578.068 842.268 577.651 842.943 577.074 843.618C576.529 844.261 575.776 844.807 574.814 845.257C573.885 845.707 572.683 845.932 571.208 845.932C569.317 845.932 567.618 845.418 566.111 844.389C564.605 843.361 563.419 841.946 562.553 840.146C561.72 838.346 561.303 836.337 561.303 834.119V833.251C561.303 830.969 561.72 828.944 562.553 827.176C563.387 825.408 564.541 824.01 566.015 822.982C567.49 821.953 569.173 821.439 571.064 821.439C572.506 821.439 573.692 821.648 574.622 822.065C575.552 822.451 576.289 822.949 576.834 823.56C577.379 824.171 577.811 824.782 578.132 825.392H578.805V822.017H582.507V840.725C582.507 841.207 582.588 841.544 582.748 841.737C582.94 841.93 583.261 842.027 583.71 842.027H584.286C586.082 842.027 587.364 841.336 588.133 839.953C588.934 838.539 589.335 836.209 589.335 832.962V831.612C589.335 828.044 588.678 825.023 587.364 822.548C586.049 820.04 584.174 818.128 581.738 816.81C579.302 815.492 576.385 814.833 572.987 814.833H572.17C568.676 814.833 565.631 815.508 563.034 816.858C560.438 818.208 558.418 820.217 556.976 822.885C555.533 825.553 554.812 828.864 554.812 832.817V833.589C554.812 837.51 555.566 840.821 557.072 843.521C558.611 846.189 560.758 848.198 563.515 849.548C566.272 850.898 569.461 851.573 573.083 851.573H582.507V854.997H572.891ZM571.929 842.509C573.949 842.509 575.6 841.753 576.882 840.243C578.164 838.732 578.805 836.627 578.805 833.926V833.444C578.805 830.744 578.164 828.639 576.882 827.128C575.6 825.585 573.949 824.814 571.929 824.814C569.91 824.814 568.259 825.585 566.977 827.128C565.695 828.671 565.054 830.76 565.054 833.396V833.975C565.054 836.578 565.695 838.652 566.977 840.194C568.259 841.737 569.91 842.509 571.929 842.509Z" stroke="#C4C6C8" stroke-width="2" mask="url(#path-6-outside-1_864_2)"/>
<path d="M600.652 845.353V821.776H604.451V845.353H600.652ZM602.575 818.112C601.742 818.112 601.037 817.839 600.46 817.292C599.915 816.746 599.642 816.055 599.642 815.219C599.642 814.351 599.915 813.644 600.46 813.097C601.037 812.551 601.742 812.278 602.575 812.278C603.409 812.278 604.098 812.551 604.643 813.097C605.188 813.644 605.46 814.351 605.46 815.219C605.46 816.055 605.188 816.746 604.643 817.292C604.098 817.839 603.409 818.112 602.575 818.112Z" stroke="#C4C6C8" stroke-width="2" mask="url(#path-6-outside-1_864_2)"/>
<path d="M612.438 845.353V821.776H616.236V845.353H612.438ZM614.361 818.112C613.528 818.112 612.822 817.839 612.245 817.292C611.7 816.746 611.428 816.055 611.428 815.219C611.428 814.351 611.7 813.644 612.245 813.097C612.822 812.551 613.528 812.278 614.361 812.278C615.194 812.278 615.884 812.551 616.429 813.097C616.973 813.644 617.246 814.351 617.246 815.219C617.246 816.055 616.973 816.746 616.429 817.292C615.884 817.839 615.194 818.112 614.361 818.112Z" stroke="#C4C6C8" stroke-width="2" mask="url(#path-6-outside-1_864_2)"/>
<path d="M624.223 845.353V821.776H628.022V845.353H624.223ZM626.147 818.112C625.313 818.112 624.608 817.839 624.031 817.292C623.486 816.746 623.214 816.055 623.214 815.219C623.214 814.351 623.486 813.644 624.031 813.097C624.608 812.551 625.313 812.278 626.147 812.278C626.98 812.278 627.669 812.551 628.214 813.097C628.759 813.644 629.032 814.351 629.032 815.219C629.032 816.055 628.759 816.746 628.214 817.292C627.669 817.839 626.98 818.112 626.147 818.112Z" stroke="#C4C6C8" stroke-width="2" mask="url(#path-6-outside-1_864_2)"/>
<path d="M644.664 845.353C643.318 845.353 642.276 844.984 641.539 844.245C640.833 843.505 640.481 842.493 640.481 841.207V825.103H633.413V821.776H640.481V813.387H644.279V821.776H651.972V825.103H644.279V840.628C644.279 841.593 644.744 842.075 645.674 842.075H650.915V845.353H644.664Z" stroke="#C4C6C8" stroke-width="2" mask="url(#path-6-outside-1_864_2)"/>
<path d="M667.233 846.028C665.213 846.028 663.354 845.546 661.655 844.582C659.956 843.618 658.61 842.219 657.616 840.387C656.623 838.555 656.126 836.385 656.126 833.878V833.251C656.126 830.744 656.623 828.591 657.616 826.791C658.61 824.958 659.94 823.56 661.607 822.596C663.306 821.599 665.181 821.101 667.233 821.101C668.868 821.101 670.246 821.326 671.368 821.776C672.522 822.194 673.451 822.741 674.157 823.416C674.862 824.058 675.407 824.749 675.791 825.489H676.465V811.603H680.263V845.353H676.561V841.448H675.888C675.246 842.637 674.253 843.698 672.906 844.63C671.56 845.562 669.669 846.028 667.233 846.028ZM668.242 842.653C670.679 842.653 672.65 841.882 674.157 840.339C675.695 838.764 676.465 836.578 676.465 833.782V833.348C676.465 830.551 675.695 828.382 674.157 826.839C672.65 825.264 670.679 824.476 668.242 824.476C665.838 824.476 663.851 825.264 662.28 826.839C660.742 828.382 659.972 830.551 659.972 833.348V833.782C659.972 836.578 660.742 838.764 662.28 840.339C663.851 841.882 665.838 842.653 668.242 842.653Z" stroke="#C4C6C8" stroke-width="2" mask="url(#path-6-outside-1_864_2)"/>
</svg>
