<svg width="638" height="493" viewBox="0 0 638 493" fill="none" xmlns="http://www.w3.org/2000/svg">
<path d="M617.53 230.887C618.116 231.999 621.277 238.263 623.559 243.589C623.852 244.292 625.666 248.448 627.305 253.013C634.154 271.92 637.9 292.289 637.9 313.42C637.9 411.874 557.709 492.065 459.723 492.065C441.344 492.065 423.666 489.314 406.984 484.163C436.72 474.915 464.347 456.418 483.546 431.775C489.517 424.049 494.083 415.269 498.999 406.898C535.115 391.562 560.753 355.564 560.753 313.42C560.753 271.276 535.524 236.272 499.819 220.761C499.76 217.834 499.526 215.083 499.175 212.567C498.941 210.576 498.59 208.469 498.18 206.186C493.907 183.241 485.771 161.291 478.513 142.443C477.518 139.75 475.761 136.706 475.469 135.419C482.376 136.063 490.044 137.175 498.297 139.048C503.741 140.277 516.15 143.321 530.022 149.35C535.817 151.867 559.699 162.637 583.756 186.109C583.756 186.109 605.004 206.83 617.53 230.887Z" fill="#67686B"/>
<path d="M474.301 414.04C472.662 418.898 467.569 423.873 464.116 427.62C448.721 444.419 428.761 457.706 407.338 465.491C397.738 469.003 380.412 463.559 370.169 464.145C371.105 463.052 372.374 461.842 373.974 460.516L374.208 460.281L433.737 403.738C445.794 402.45 459.433 414.567 474.301 414.04Z" fill="#C4C6C8"/>
<path d="M421.268 387.582C421.21 388.168 421.092 388.812 420.917 389.455C420.624 390.216 420.273 390.977 419.805 391.738L418.985 392.675L347.691 460.515L345.116 460.34C344.296 460.34 343.477 460.164 342.599 460.047C334.931 458.818 321.292 458.115 303.791 458.057C297.176 458.057 291.499 458.408 287.343 458.701C285.06 458.877 283.187 458.994 281.841 458.994L263.52 459.286L401.366 358.198C403.24 357.554 405.23 357.496 407.044 358.081C408.625 358.491 410.264 359.662 411.376 361.301C416.293 367.33 422.322 379.563 421.268 387.582Z" fill="#C4C6C8"/>
<path d="M267.617 432.887C268.085 415.152 267.617 399.406 267.617 381.612C267.617 376.051 271.305 374.529 274.349 372.949C275.344 372.422 361.447 326.824 362.969 326.063C365.31 324.893 367.71 323.956 370.285 323.956C376.49 323.956 380.119 329.692 383.514 335.019C385.329 337.887 387.494 341.224 388.08 344.267L267.617 432.887Z" fill="#C4C6C8"/>
<path d="M522.941 23.3267C521.302 20.5171 517.731 19.5807 514.922 21.2196L429.287 71.3827L415.063 79.6948L410.907 95.733L405.58 116.337C401.834 117.449 398.205 119.088 394.869 121.254C396.391 107.44 397.912 93.5673 399.376 79.7534C399.376 79.7534 483.665 12.7906 486.006 10.4492C488.347 8.10789 488.933 4.71309 486.884 2.19613C484.894 -0.320818 481.206 -0.730754 478.689 1.25939L401.19 63.2468L388.254 73.607C386.147 93.2159 384.04 112.825 381.874 132.434C381.64 132.668 381.406 132.96 381.172 133.253C370.285 146.657 369.231 161.759 367.416 178.265C367.416 176.919 342.305 173.056 340.432 172.705C327.613 170.48 315.321 166.149 303.322 173.29C298.171 176.334 293.078 179.378 287.927 182.421C272.123 191.787 256.319 201.211 240.457 210.635C220.204 222.693 200.068 234.692 179.816 246.633C134.335 273.675 88.9128 300.601 43.4905 327.527C29.2083 336.014 13.1701 343.565 0 353.574C4.44857 361.301 12.4091 368.208 21.1892 373.476C24.233 375.349 27.3937 377.046 30.613 378.392C35.3543 380.558 39.9785 382.08 44.4271 383.075C67.5479 388.109 92.2492 386.061 115.194 381.202C122.336 379.68 129.477 377.866 136.501 375.7C147.739 372.247 154.412 367.798 161.787 358.491C180.108 335.312 198.429 312.132 216.751 288.953C232.145 269.403 247.539 249.911 262.934 230.361C270.25 277.305 263.343 354.92 263.343 354.92C263.343 354.92 343.125 321.673 358.929 296.855C367.241 283.86 375.611 270.983 384.333 258.281C388.664 251.96 393.113 245.638 397.62 239.433C401.483 234.048 406.868 228.956 408.097 222.4C407.512 226.263 429.404 231.297 431.979 231.999C442.632 235.043 453.754 238.555 464.934 238.555C479.274 238.555 483.899 231.941 481.674 214.732C479.684 199.221 475.47 184.119 470.845 169.251C467.451 158.306 462.709 147.594 456.036 138.17C449.071 128.336 438.945 119.849 427.297 116.395C424.253 115.459 421.15 114.932 417.931 114.756L425.072 87.3627L520.716 31.2872C523.526 29.6483 524.462 26.0778 522.823 23.2681L522.941 23.3267Z" fill="#C4C6C8"/>
</svg>
